<?xml version="1.0" standalone="no"?>
<!DOCTYPE svg PUBLIC "-//W3C//DTD SVG 20010904//EN"
 "http://www.w3.org/TR/2001/REC-SVG-20010904/DTD/svg10.dtd">
<svg version="1.0" xmlns="http://www.w3.org/2000/svg"
 width="200.000000pt" height="200.000000pt" viewBox="0 0 200.000000 200.000000"
 preserveAspectRatio="xMidYMid meet">
<metadata>
Created by potrace 1.11, written by Peter Selinger 2001-2013
</metadata>
<g transform="translate(0.000000,200.000000) scale(0.100000,-0.100000)"
fill="#000000" stroke="none">
<path d="M294 1989 c-19 -32 -4 -246 17 -233 5 3 12 -9 16 -26 3 -19 9 -27 13
-20 12 20 22 -38 10 -60 -15 -29 0 -24 28 8 l23 27 -4 -47 c-3 -26 -1 -45 4
-42 5 3 9 15 9 27 0 16 3 18 12 9 16 -16 41 -15 35 2 -4 11 1 11 29 1 18 -6
37 -14 40 -18 11 -11 26 -8 19 3 -10 16 11 12 25 -5 7 -8 17 -15 23 -15 6 0 0
11 -13 25 -13 14 -19 25 -13 25 6 0 16 -7 23 -15 7 -8 21 -15 31 -15 10 0 26
-11 35 -25 13 -20 19 -23 30 -14 8 6 14 19 14 28 0 9 9 -4 20 -28 24 -51 25
-70 6 -96 -14 -20 -16 -26 -16 -46 0 -5 -5 -7 -11 -3 -8 4 -7 9 2 15 8 5 10 9
5 9 -4 0 -1 11 8 25 9 13 16 32 16 42 0 13 -9 9 -37 -18 -93 -88 -140 -108
-158 -67 -6 12 -17 23 -25 26 -10 2 -11 1 -4 -5 6 -4 16 -18 23 -30 15 -29 44
-29 88 -2 28 17 36 19 49 8 13 -11 4 -17 -63 -38 -64 -22 -82 -32 -101 -61
-13 -19 -44 -46 -70 -59 -26 -13 -54 -30 -63 -37 -9 -8 -36 -18 -60 -22 -38
-7 -47 -13 -67 -49 -20 -36 -32 -45 -121 -82 -55 -22 -105 -41 -110 -41 -8 0
-11 -66 -11 -201 0 -187 1 -201 18 -194 9 3 82 9 162 12 119 4 152 2 182 -11
57 -24 60 -37 41 -177 -9 -68 -17 -145 -18 -170 -3 -63 -12 -85 -42 -109 -33
-26 -92 -26 -169 0 -34 12 -70 18 -86 15 -16 -4 -39 0 -57 10 l-31 16 0 -121
0 -121 228 3 227 3 2 35 c3 61 14 119 24 125 5 4 9 -1 9 -9 0 -20 59 -88 70
-81 5 3 12 1 15 -5 4 -6 3 -10 -2 -9 -39 7 -37 -6 2 -17 28 -7 54 -12 60 -11
5 2 -16 22 -47 45 -31 22 -66 57 -78 77 -20 32 -22 46 -17 110 3 40 15 107 27
150 12 42 27 136 35 209 7 72 13 117 14 100 0 -18 8 -67 15 -110 8 -44 20
-117 27 -164 7 -47 14 -80 16 -74 5 14 -9 123 -37 282 l-21 122 31 91 c17 53
28 100 24 112 -4 14 -3 17 6 12 9 -6 10 1 5 26 -4 22 -3 29 3 21 7 -10 13 -3
26 27 8 23 18 41 21 41 3 0 4 -62 3 -137 -1 -127 1 -173 8 -173 2 0 19 9 38
21 21 12 33 26 29 32 -3 7 -3 9 2 5 11 -10 70 22 160 87 55 39 88 72 116 116
22 33 36 65 33 71 -4 6 -3 8 3 5 5 -3 17 9 25 27 13 26 13 33 3 33 -7 0 -11
-5 -9 -12 3 -6 -10 -12 -32 -13 -35 -3 -80 -19 -72 -27 2 -2 20 0 41 4 35 8
36 8 25 -13 -31 -59 -76 -111 -139 -162 -124 -99 -188 -126 -190 -81 -1 21 -1
21 -9 -3 -4 -14 -6 22 -4 80 5 130 8 157 17 166 4 4 7 14 6 23 0 12 -3 11 -9
-4 -6 -13 -9 -15 -9 -5 0 8 3 21 8 28 6 11 13 7 30 -14 l21 -27 0 95 c0 92 -1
95 -30 123 -16 16 -30 39 -30 52 0 35 58 153 75 153 8 0 15 -5 15 -11 0 -5 4
-7 10 -4 5 3 12 -6 16 -21 6 -25 8 -26 19 -10 10 13 14 14 18 4 4 -10 7 -10
15 1 7 10 12 -6 17 -55 10 -106 13 -107 14 -4 1 65 4 90 11 80 5 -8 10 -25 10
-37 0 -13 4 -23 9 -23 5 0 11 10 15 23 5 20 13 15 81 -58 62 -67 74 -85 74
-115 1 -76 1 -76 -149 -126 -72 -24 -105 -42 -96 -51 2 -2 12 0 23 6 10 6 60
26 111 44 73 27 92 31 92 19 0 -16 32 20 43 48 3 8 6 -3 6 -25 1 -58 -25 -175
-65 -290 -19 -55 -43 -130 -52 -167 -21 -76 -40 -107 -147 -238 -74 -91 -74
-92 -18 -35 32 33 71 76 86 95 l27 35 -15 -38 c-48 -116 -105 -414 -105 -544
l0 -63 428 0 427 0 -6 87 c-4 49 -14 108 -24 133 -17 44 -23 83 -44 270 -27
248 -33 335 -32 466 0 78 -4 156 -9 174 -12 40 -47 80 -71 80 -10 0 -38 18
-63 39 -47 41 -56 45 -117 55 -20 4 -69 29 -109 57 -44 30 -92 54 -120 60 -49
10 -107 57 -83 66 10 4 10 10 2 25 -7 14 -8 18 0 14 7 -4 8 12 5 49 -3 31 -2
68 4 83 5 15 17 54 27 87 9 33 21 74 26 91 5 17 9 45 9 63 0 18 4 30 9 26 5
-3 2 13 -6 35 l-16 40 -398 0 c-284 0 -400 -3 -405 -11z m488 -311 c-6 -6 -15
-8 -19 -4 -4 4 -1 11 7 16 8 5 17 7 19 4 3 -2 -1 -10 -7 -16z m-31 -427 c-7
-13 -8 -22 -1 -26 5 -3 10 -11 10 -18 0 -6 -6 -2 -14 8 -8 11 -12 25 -10 32
12 39 17 47 21 36 2 -7 -1 -21 -6 -32z m-65 -97 c-4 -9 -9 -15 -11 -12 -3 3
-3 13 1 22 4 9 9 15 11 12 3 -3 3 -13 -1 -22z m-27 -63 c-6 -18 -13 -30 -15
-28 -2 2 1 18 7 36 6 18 13 30 15 28 2 -2 -1 -18 -7 -36z m341 -76 c-7 -9 -27
-25 -44 -37 -23 -15 -21 -11 9 16 43 38 55 45 35 21z m-399 -106 c-5 -13 -10
-19 -10 -12 -1 15 10 45 15 40 3 -2 0 -15 -5 -28z m-14 -51 c-3 -8 -6 -5 -6 6
-1 11 2 17 5 13 3 -3 4 -12 1 -19z m149 -23 c-11 -8 -25 -15 -30 -15 -6 1 0 7
14 15 32 19 40 18 16 0z"/>
<path d="M380 1572 c0 -7 8 -16 18 -19 9 -4 27 -17 39 -30 12 -13 28 -23 35
-23 9 1 7 5 -4 14 -10 7 -18 18 -18 24 0 7 -12 15 -27 18 -16 4 -31 12 -35 18
-5 8 -8 7 -8 -2z"/>
<path d="M912 1304 c-1 -12 -5 -37 -8 -55 -4 -28 -3 -31 6 -16 6 9 9 34 7 55
-2 20 -4 27 -5 16z"/>
<path d="M827 1129 c-10 -6 -25 -8 -33 -5 -10 4 -14 1 -12 -6 7 -21 33 -20 59
1 25 21 16 28 -14 10z"/>
</g>
</svg>
